<mxfile host="app.diagrams.net" modified="2021-04-23T12:36:17.615Z" agent="5.0 (Windows NT 10.0; Win64; x64) AppleWebKit/537.36 (KHTML, like Gecko) Chrome/90.0.4430.85 Safari/537.36" etag="oisGpfK3EfBWl037yESK" version="14.5.8" type="github">
  <diagram id="-I1Yay3vVi8EwpajIZ61" name="Page-1">
    <mxGraphModel dx="1422" dy="762" grid="1" gridSize="10" guides="1" tooltips="1" connect="1" arrows="1" fold="1" page="1" pageScale="1" pageWidth="827" pageHeight="1169" math="0" shadow="0">
      <root>
        <mxCell id="0" />
        <mxCell id="1" parent="0" />
        <mxCell id="5Mn8vaPF1wxvPnwxlhvy-71" style="edgeStyle=orthogonalEdgeStyle;rounded=0;orthogonalLoop=1;jettySize=auto;html=1;strokeWidth=2;" edge="1" parent="1" source="5Mn8vaPF1wxvPnwxlhvy-5" target="5Mn8vaPF1wxvPnwxlhvy-69">
          <mxGeometry relative="1" as="geometry" />
        </mxCell>
        <mxCell id="5Mn8vaPF1wxvPnwxlhvy-5" value="FFC CI Pipeline" style="rounded=1;whiteSpace=wrap;html=1;verticalAlign=top;" vertex="1" parent="1">
          <mxGeometry x="260" y="160" width="640" height="680" as="geometry" />
        </mxCell>
        <mxCell id="5Mn8vaPF1wxvPnwxlhvy-2" value="GitHub" style="rounded=1;whiteSpace=wrap;html=1;verticalAlign=top;" vertex="1" parent="1">
          <mxGeometry x="40" y="160" width="140" height="240" as="geometry" />
        </mxCell>
        <mxCell id="5Mn8vaPF1wxvPnwxlhvy-3" value="" style="shape=image;html=1;verticalAlign=top;verticalLabelPosition=bottom;labelBackgroundColor=#ffffff;imageAspect=0;aspect=fixed;image=https://cdn1.iconfinder.com/data/icons/logotypes/32/github-128.png" vertex="1" parent="1">
          <mxGeometry x="95" y="190" width="30" height="30" as="geometry" />
        </mxCell>
        <mxCell id="5Mn8vaPF1wxvPnwxlhvy-56" style="edgeStyle=orthogonalEdgeStyle;rounded=0;orthogonalLoop=1;jettySize=auto;html=1;entryX=0.5;entryY=0;entryDx=0;entryDy=0;strokeWidth=2;dashed=1;" edge="1" parent="1" source="5Mn8vaPF1wxvPnwxlhvy-4" target="5Mn8vaPF1wxvPnwxlhvy-55">
          <mxGeometry relative="1" as="geometry" />
        </mxCell>
        <mxCell id="5Mn8vaPF1wxvPnwxlhvy-4" value="Microservice template repository" style="rounded=1;whiteSpace=wrap;html=1;fillColor=#d5e8d4;strokeColor=#82b366;" vertex="1" parent="1">
          <mxGeometry x="50" y="230" width="120" height="60" as="geometry" />
        </mxCell>
        <mxCell id="5Mn8vaPF1wxvPnwxlhvy-6" value="" style="shape=image;html=1;verticalAlign=top;verticalLabelPosition=bottom;labelBackgroundColor=#ffffff;imageAspect=0;aspect=fixed;image=https://cdn4.iconfinder.com/data/icons/logos-brands-5/24/jenkins-128.png" vertex="1" parent="1">
          <mxGeometry x="565" y="190" width="30" height="30" as="geometry" />
        </mxCell>
        <mxCell id="5Mn8vaPF1wxvPnwxlhvy-9" value="" style="edgeStyle=orthogonalEdgeStyle;rounded=0;orthogonalLoop=1;jettySize=auto;html=1;" edge="1" parent="1" source="5Mn8vaPF1wxvPnwxlhvy-7" target="5Mn8vaPF1wxvPnwxlhvy-8">
          <mxGeometry relative="1" as="geometry" />
        </mxCell>
        <mxCell id="5Mn8vaPF1wxvPnwxlhvy-13" value="" style="edgeStyle=orthogonalEdgeStyle;rounded=0;orthogonalLoop=1;jettySize=auto;html=1;strokeWidth=2;" edge="1" parent="1" source="5Mn8vaPF1wxvPnwxlhvy-7" target="5Mn8vaPF1wxvPnwxlhvy-12">
          <mxGeometry relative="1" as="geometry" />
        </mxCell>
        <mxCell id="5Mn8vaPF1wxvPnwxlhvy-7" value="Validate" style="rounded=1;whiteSpace=wrap;html=1;fillColor=#dae8fc;strokeColor=#6c8ebf;" vertex="1" parent="1">
          <mxGeometry x="278" y="230" width="120" height="60" as="geometry" />
        </mxCell>
        <mxCell id="5Mn8vaPF1wxvPnwxlhvy-11" value="" style="edgeStyle=orthogonalEdgeStyle;rounded=0;orthogonalLoop=1;jettySize=auto;html=1;" edge="1" parent="1" source="5Mn8vaPF1wxvPnwxlhvy-8" target="5Mn8vaPF1wxvPnwxlhvy-10">
          <mxGeometry relative="1" as="geometry" />
        </mxCell>
        <mxCell id="5Mn8vaPF1wxvPnwxlhvy-8" value="Version" style="rounded=1;whiteSpace=wrap;html=1;fillColor=#d5e8d4;strokeColor=#82b366;" vertex="1" parent="1">
          <mxGeometry x="278" y="320" width="120" height="30" as="geometry" />
        </mxCell>
        <mxCell id="5Mn8vaPF1wxvPnwxlhvy-10" value="Vulnerability scanning" style="rounded=1;whiteSpace=wrap;html=1;fillColor=#d5e8d4;strokeColor=#82b366;" vertex="1" parent="1">
          <mxGeometry x="278" y="380" width="120" height="30" as="geometry" />
        </mxCell>
        <mxCell id="5Mn8vaPF1wxvPnwxlhvy-15" value="" style="edgeStyle=orthogonalEdgeStyle;rounded=0;orthogonalLoop=1;jettySize=auto;html=1;" edge="1" parent="1" source="5Mn8vaPF1wxvPnwxlhvy-12" target="5Mn8vaPF1wxvPnwxlhvy-14">
          <mxGeometry relative="1" as="geometry" />
        </mxCell>
        <mxCell id="5Mn8vaPF1wxvPnwxlhvy-33" value="" style="edgeStyle=orthogonalEdgeStyle;rounded=0;orthogonalLoop=1;jettySize=auto;html=1;strokeWidth=2;" edge="1" parent="1" source="5Mn8vaPF1wxvPnwxlhvy-12" target="5Mn8vaPF1wxvPnwxlhvy-32">
          <mxGeometry relative="1" as="geometry" />
        </mxCell>
        <mxCell id="5Mn8vaPF1wxvPnwxlhvy-12" value="Test" style="rounded=1;whiteSpace=wrap;html=1;fillColor=#dae8fc;strokeColor=#6c8ebf;" vertex="1" parent="1">
          <mxGeometry x="440" y="230" width="120" height="60" as="geometry" />
        </mxCell>
        <mxCell id="5Mn8vaPF1wxvPnwxlhvy-17" value="" style="edgeStyle=orthogonalEdgeStyle;rounded=0;orthogonalLoop=1;jettySize=auto;html=1;" edge="1" parent="1" source="5Mn8vaPF1wxvPnwxlhvy-14" target="5Mn8vaPF1wxvPnwxlhvy-16">
          <mxGeometry relative="1" as="geometry" />
        </mxCell>
        <mxCell id="5Mn8vaPF1wxvPnwxlhvy-14" value="Linting" style="rounded=1;whiteSpace=wrap;html=1;fillColor=#d5e8d4;strokeColor=#82b366;" vertex="1" parent="1">
          <mxGeometry x="440" y="320" width="120" height="30" as="geometry" />
        </mxCell>
        <mxCell id="5Mn8vaPF1wxvPnwxlhvy-19" value="" style="edgeStyle=orthogonalEdgeStyle;rounded=0;orthogonalLoop=1;jettySize=auto;html=1;" edge="1" parent="1" source="5Mn8vaPF1wxvPnwxlhvy-16" target="5Mn8vaPF1wxvPnwxlhvy-18">
          <mxGeometry relative="1" as="geometry" />
        </mxCell>
        <mxCell id="5Mn8vaPF1wxvPnwxlhvy-16" value="Unit" style="rounded=1;whiteSpace=wrap;html=1;fillColor=#d5e8d4;strokeColor=#82b366;" vertex="1" parent="1">
          <mxGeometry x="440" y="380" width="120" height="30" as="geometry" />
        </mxCell>
        <mxCell id="5Mn8vaPF1wxvPnwxlhvy-21" value="" style="edgeStyle=orthogonalEdgeStyle;rounded=0;orthogonalLoop=1;jettySize=auto;html=1;" edge="1" parent="1" source="5Mn8vaPF1wxvPnwxlhvy-18" target="5Mn8vaPF1wxvPnwxlhvy-20">
          <mxGeometry relative="1" as="geometry" />
        </mxCell>
        <mxCell id="5Mn8vaPF1wxvPnwxlhvy-18" value="Narrow integration" style="rounded=1;whiteSpace=wrap;html=1;fillColor=#d5e8d4;strokeColor=#82b366;" vertex="1" parent="1">
          <mxGeometry x="440" y="440" width="120" height="30" as="geometry" />
        </mxCell>
        <mxCell id="5Mn8vaPF1wxvPnwxlhvy-23" value="" style="edgeStyle=orthogonalEdgeStyle;rounded=0;orthogonalLoop=1;jettySize=auto;html=1;" edge="1" parent="1" source="5Mn8vaPF1wxvPnwxlhvy-20" target="5Mn8vaPF1wxvPnwxlhvy-22">
          <mxGeometry relative="1" as="geometry" />
        </mxCell>
        <mxCell id="5Mn8vaPF1wxvPnwxlhvy-20" value="Local integration" style="rounded=1;whiteSpace=wrap;html=1;fillColor=#f5f5f5;strokeColor=#666666;fontColor=#333333;" vertex="1" parent="1">
          <mxGeometry x="440" y="500" width="120" height="30" as="geometry" />
        </mxCell>
        <mxCell id="5Mn8vaPF1wxvPnwxlhvy-25" value="" style="edgeStyle=orthogonalEdgeStyle;rounded=0;orthogonalLoop=1;jettySize=auto;html=1;" edge="1" parent="1" source="5Mn8vaPF1wxvPnwxlhvy-22" target="5Mn8vaPF1wxvPnwxlhvy-24">
          <mxGeometry relative="1" as="geometry" />
        </mxCell>
        <mxCell id="5Mn8vaPF1wxvPnwxlhvy-22" value="Contract" style="rounded=1;whiteSpace=wrap;html=1;fillColor=#f5f5f5;strokeColor=#666666;fontColor=#333333;" vertex="1" parent="1">
          <mxGeometry x="440" y="560" width="120" height="30" as="geometry" />
        </mxCell>
        <mxCell id="5Mn8vaPF1wxvPnwxlhvy-27" value="" style="edgeStyle=orthogonalEdgeStyle;rounded=0;orthogonalLoop=1;jettySize=auto;html=1;" edge="1" parent="1" source="5Mn8vaPF1wxvPnwxlhvy-24" target="5Mn8vaPF1wxvPnwxlhvy-26">
          <mxGeometry relative="1" as="geometry" />
        </mxCell>
        <mxCell id="5Mn8vaPF1wxvPnwxlhvy-24" value="Static code analysis" style="rounded=1;whiteSpace=wrap;html=1;fillColor=#d5e8d4;strokeColor=#82b366;" vertex="1" parent="1">
          <mxGeometry x="440" y="620" width="120" height="30" as="geometry" />
        </mxCell>
        <mxCell id="5Mn8vaPF1wxvPnwxlhvy-29" value="" style="edgeStyle=orthogonalEdgeStyle;rounded=0;orthogonalLoop=1;jettySize=auto;html=1;" edge="1" parent="1" source="5Mn8vaPF1wxvPnwxlhvy-26" target="5Mn8vaPF1wxvPnwxlhvy-28">
          <mxGeometry relative="1" as="geometry" />
        </mxCell>
        <mxCell id="5Mn8vaPF1wxvPnwxlhvy-26" value="Acceptance" style="rounded=1;whiteSpace=wrap;html=1;fillColor=#d5e8d4;strokeColor=#82b366;" vertex="1" parent="1">
          <mxGeometry x="440" y="680" width="120" height="30" as="geometry" />
        </mxCell>
        <mxCell id="5Mn8vaPF1wxvPnwxlhvy-31" value="" style="edgeStyle=orthogonalEdgeStyle;rounded=0;orthogonalLoop=1;jettySize=auto;html=1;" edge="1" parent="1" source="5Mn8vaPF1wxvPnwxlhvy-28" target="5Mn8vaPF1wxvPnwxlhvy-30">
          <mxGeometry relative="1" as="geometry" />
        </mxCell>
        <mxCell id="5Mn8vaPF1wxvPnwxlhvy-28" value="Compatibility" style="rounded=1;whiteSpace=wrap;html=1;fillColor=#d5e8d4;strokeColor=#82b366;" vertex="1" parent="1">
          <mxGeometry x="440" y="740" width="120" height="30" as="geometry" />
        </mxCell>
        <mxCell id="5Mn8vaPF1wxvPnwxlhvy-30" value="Accessibility" style="rounded=1;whiteSpace=wrap;html=1;fillColor=#d5e8d4;strokeColor=#82b366;" vertex="1" parent="1">
          <mxGeometry x="440" y="800" width="120" height="30" as="geometry" />
        </mxCell>
        <mxCell id="5Mn8vaPF1wxvPnwxlhvy-35" value="" style="edgeStyle=orthogonalEdgeStyle;rounded=0;orthogonalLoop=1;jettySize=auto;html=1;" edge="1" parent="1" source="5Mn8vaPF1wxvPnwxlhvy-32" target="5Mn8vaPF1wxvPnwxlhvy-34">
          <mxGeometry relative="1" as="geometry" />
        </mxCell>
        <mxCell id="5Mn8vaPF1wxvPnwxlhvy-43" value="" style="edgeStyle=orthogonalEdgeStyle;rounded=0;orthogonalLoop=1;jettySize=auto;html=1;strokeWidth=2;" edge="1" parent="1" source="5Mn8vaPF1wxvPnwxlhvy-32">
          <mxGeometry relative="1" as="geometry">
            <mxPoint x="760" y="260" as="targetPoint" />
          </mxGeometry>
        </mxCell>
        <mxCell id="5Mn8vaPF1wxvPnwxlhvy-32" value="Deploy (if Pull Request build)" style="rounded=1;whiteSpace=wrap;html=1;fillColor=#dae8fc;strokeColor=#6c8ebf;" vertex="1" parent="1">
          <mxGeometry x="600" y="230" width="120" height="60" as="geometry" />
        </mxCell>
        <mxCell id="5Mn8vaPF1wxvPnwxlhvy-37" value="" style="edgeStyle=orthogonalEdgeStyle;rounded=0;orthogonalLoop=1;jettySize=auto;html=1;" edge="1" parent="1" source="5Mn8vaPF1wxvPnwxlhvy-34" target="5Mn8vaPF1wxvPnwxlhvy-36">
          <mxGeometry relative="1" as="geometry" />
        </mxCell>
        <mxCell id="5Mn8vaPF1wxvPnwxlhvy-34" value="Provision PR environment" style="rounded=1;whiteSpace=wrap;html=1;fillColor=#d5e8d4;strokeColor=#82b366;" vertex="1" parent="1">
          <mxGeometry x="600" y="320" width="120" height="30" as="geometry" />
        </mxCell>
        <mxCell id="5Mn8vaPF1wxvPnwxlhvy-39" value="" style="edgeStyle=orthogonalEdgeStyle;rounded=0;orthogonalLoop=1;jettySize=auto;html=1;" edge="1" parent="1" source="5Mn8vaPF1wxvPnwxlhvy-36" target="5Mn8vaPF1wxvPnwxlhvy-38">
          <mxGeometry relative="1" as="geometry" />
        </mxCell>
        <mxCell id="5Mn8vaPF1wxvPnwxlhvy-36" value="Provision PR infrastructure" style="rounded=1;whiteSpace=wrap;html=1;fillColor=#f5f5f5;strokeColor=#666666;fontColor=#333333;" vertex="1" parent="1">
          <mxGeometry x="600" y="380" width="120" height="30" as="geometry" />
        </mxCell>
        <mxCell id="5Mn8vaPF1wxvPnwxlhvy-38" value="Deploy PR microservice" style="rounded=1;whiteSpace=wrap;html=1;fillColor=#d5e8d4;strokeColor=#82b366;" vertex="1" parent="1">
          <mxGeometry x="600" y="440" width="120" height="30" as="geometry" />
        </mxCell>
        <mxCell id="5Mn8vaPF1wxvPnwxlhvy-44" value="" style="edgeStyle=orthogonalEdgeStyle;rounded=0;orthogonalLoop=1;jettySize=auto;html=1;" edge="1" parent="1" source="5Mn8vaPF1wxvPnwxlhvy-46" target="5Mn8vaPF1wxvPnwxlhvy-48">
          <mxGeometry relative="1" as="geometry" />
        </mxCell>
        <mxCell id="5Mn8vaPF1wxvPnwxlhvy-59" value="" style="edgeStyle=orthogonalEdgeStyle;rounded=0;orthogonalLoop=1;jettySize=auto;html=1;strokeWidth=2;" edge="1" parent="1" source="5Mn8vaPF1wxvPnwxlhvy-46" target="5Mn8vaPF1wxvPnwxlhvy-58">
          <mxGeometry relative="1" as="geometry" />
        </mxCell>
        <mxCell id="5Mn8vaPF1wxvPnwxlhvy-46" value="Package assets" style="rounded=1;whiteSpace=wrap;html=1;fillColor=#dae8fc;strokeColor=#6c8ebf;" vertex="1" parent="1">
          <mxGeometry x="760" y="230" width="120" height="60" as="geometry" />
        </mxCell>
        <mxCell id="5Mn8vaPF1wxvPnwxlhvy-47" value="" style="edgeStyle=orthogonalEdgeStyle;rounded=0;orthogonalLoop=1;jettySize=auto;html=1;" edge="1" parent="1" source="5Mn8vaPF1wxvPnwxlhvy-48" target="5Mn8vaPF1wxvPnwxlhvy-50">
          <mxGeometry relative="1" as="geometry" />
        </mxCell>
        <mxCell id="5Mn8vaPF1wxvPnwxlhvy-48" value="Container image" style="rounded=1;whiteSpace=wrap;html=1;fillColor=#d5e8d4;strokeColor=#82b366;" vertex="1" parent="1">
          <mxGeometry x="760" y="320" width="120" height="30" as="geometry" />
        </mxCell>
        <mxCell id="5Mn8vaPF1wxvPnwxlhvy-49" value="" style="edgeStyle=orthogonalEdgeStyle;rounded=0;orthogonalLoop=1;jettySize=auto;html=1;" edge="1" parent="1" source="5Mn8vaPF1wxvPnwxlhvy-50" target="5Mn8vaPF1wxvPnwxlhvy-52">
          <mxGeometry relative="1" as="geometry" />
        </mxCell>
        <mxCell id="5Mn8vaPF1wxvPnwxlhvy-50" value="Helm chart" style="rounded=1;whiteSpace=wrap;html=1;fillColor=#d5e8d4;strokeColor=#82b366;" vertex="1" parent="1">
          <mxGeometry x="760" y="380" width="120" height="30" as="geometry" />
        </mxCell>
        <mxCell id="5Mn8vaPF1wxvPnwxlhvy-51" value="" style="edgeStyle=orthogonalEdgeStyle;rounded=0;orthogonalLoop=1;jettySize=auto;html=1;" edge="1" parent="1" source="5Mn8vaPF1wxvPnwxlhvy-52" target="5Mn8vaPF1wxvPnwxlhvy-53">
          <mxGeometry relative="1" as="geometry" />
        </mxCell>
        <mxCell id="5Mn8vaPF1wxvPnwxlhvy-52" value="Database migrations" style="rounded=1;whiteSpace=wrap;html=1;fillColor=#f5f5f5;strokeColor=#666666;fontColor=#333333;" vertex="1" parent="1">
          <mxGeometry x="760" y="440" width="120" height="30" as="geometry" />
        </mxCell>
        <mxCell id="5Mn8vaPF1wxvPnwxlhvy-53" value="Release / Release note" style="rounded=1;whiteSpace=wrap;html=1;fillColor=#d5e8d4;strokeColor=#82b366;" vertex="1" parent="1">
          <mxGeometry x="760" y="500" width="120" height="30" as="geometry" />
        </mxCell>
        <mxCell id="5Mn8vaPF1wxvPnwxlhvy-57" style="edgeStyle=orthogonalEdgeStyle;rounded=0;orthogonalLoop=1;jettySize=auto;html=1;entryX=0;entryY=0.5;entryDx=0;entryDy=0;strokeWidth=2;" edge="1" parent="1" source="5Mn8vaPF1wxvPnwxlhvy-55" target="5Mn8vaPF1wxvPnwxlhvy-7">
          <mxGeometry relative="1" as="geometry" />
        </mxCell>
        <mxCell id="5Mn8vaPF1wxvPnwxlhvy-55" value="ffc-pr-calculator" style="rounded=1;whiteSpace=wrap;html=1;" vertex="1" parent="1">
          <mxGeometry x="50" y="330" width="120" height="60" as="geometry" />
        </mxCell>
        <mxCell id="5Mn8vaPF1wxvPnwxlhvy-64" style="edgeStyle=orthogonalEdgeStyle;rounded=0;orthogonalLoop=1;jettySize=auto;html=1;entryX=0.5;entryY=0;entryDx=0;entryDy=0;strokeWidth=1;" edge="1" parent="1" source="5Mn8vaPF1wxvPnwxlhvy-58" target="5Mn8vaPF1wxvPnwxlhvy-61">
          <mxGeometry relative="1" as="geometry" />
        </mxCell>
        <mxCell id="5Mn8vaPF1wxvPnwxlhvy-58" value="FFC Deployment pipeline" style="rounded=1;whiteSpace=wrap;html=1;verticalAlign=top;" vertex="1" parent="1">
          <mxGeometry x="960" y="215" width="120" height="90" as="geometry" />
        </mxCell>
        <mxCell id="5Mn8vaPF1wxvPnwxlhvy-60" value="" style="aspect=fixed;html=1;points=[];align=center;image;fontSize=12;image=img/lib/azure2/devops/Azure_DevOps.svg;" vertex="1" parent="1">
          <mxGeometry x="1005" y="260" width="30" height="30" as="geometry" />
        </mxCell>
        <mxCell id="5Mn8vaPF1wxvPnwxlhvy-65" style="edgeStyle=orthogonalEdgeStyle;rounded=0;orthogonalLoop=1;jettySize=auto;html=1;entryX=0.5;entryY=0;entryDx=0;entryDy=0;strokeWidth=1;" edge="1" parent="1" source="5Mn8vaPF1wxvPnwxlhvy-61" target="5Mn8vaPF1wxvPnwxlhvy-62">
          <mxGeometry relative="1" as="geometry" />
        </mxCell>
        <mxCell id="5Mn8vaPF1wxvPnwxlhvy-61" value="Development" style="rounded=1;whiteSpace=wrap;html=1;fillColor=#d5e8d4;strokeColor=#82b366;" vertex="1" parent="1">
          <mxGeometry x="960" y="320" width="120" height="30" as="geometry" />
        </mxCell>
        <mxCell id="5Mn8vaPF1wxvPnwxlhvy-66" style="edgeStyle=orthogonalEdgeStyle;rounded=0;orthogonalLoop=1;jettySize=auto;html=1;entryX=0.5;entryY=0;entryDx=0;entryDy=0;strokeWidth=1;" edge="1" parent="1" source="5Mn8vaPF1wxvPnwxlhvy-62" target="5Mn8vaPF1wxvPnwxlhvy-63">
          <mxGeometry relative="1" as="geometry" />
        </mxCell>
        <mxCell id="5Mn8vaPF1wxvPnwxlhvy-62" value="Test" style="rounded=1;whiteSpace=wrap;html=1;fillColor=#d5e8d4;strokeColor=#82b366;" vertex="1" parent="1">
          <mxGeometry x="960" y="380" width="120" height="30" as="geometry" />
        </mxCell>
        <mxCell id="5Mn8vaPF1wxvPnwxlhvy-68" value="" style="edgeStyle=orthogonalEdgeStyle;rounded=0;orthogonalLoop=1;jettySize=auto;html=1;strokeWidth=1;" edge="1" parent="1" source="5Mn8vaPF1wxvPnwxlhvy-63" target="5Mn8vaPF1wxvPnwxlhvy-67">
          <mxGeometry relative="1" as="geometry" />
        </mxCell>
        <mxCell id="5Mn8vaPF1wxvPnwxlhvy-63" value="PreProd" style="rounded=1;whiteSpace=wrap;html=1;fillColor=#d5e8d4;strokeColor=#82b366;" vertex="1" parent="1">
          <mxGeometry x="960" y="440" width="120" height="30" as="geometry" />
        </mxCell>
        <mxCell id="5Mn8vaPF1wxvPnwxlhvy-67" value="Production" style="rounded=1;whiteSpace=wrap;html=1;fillColor=#d5e8d4;strokeColor=#82b366;" vertex="1" parent="1">
          <mxGeometry x="960" y="500" width="120" height="30" as="geometry" />
        </mxCell>
        <mxCell id="5Mn8vaPF1wxvPnwxlhvy-69" value="FFC Notifications" style="rounded=1;whiteSpace=wrap;html=1;verticalAlign=top;" vertex="1" parent="1">
          <mxGeometry x="960" y="680" width="120" height="60" as="geometry" />
        </mxCell>
        <mxCell id="5Mn8vaPF1wxvPnwxlhvy-70" value="" style="shape=image;html=1;verticalAlign=top;verticalLabelPosition=bottom;labelBackgroundColor=#ffffff;imageAspect=0;aspect=fixed;image=https://cdn4.iconfinder.com/data/icons/logos-and-brands/512/306_Slack_logo-128.png" vertex="1" parent="1">
          <mxGeometry x="1005" y="707" width="30" height="30" as="geometry" />
        </mxCell>
      </root>
    </mxGraphModel>
  </diagram>
</mxfile>
